<svg width="17" height="20" viewBox="0 0 17 20" fill="none" xmlns="http://www.w3.org/2000/svg">
<g clip-path="url(#clip0_1_1590)">
<path d="M6.42 14.9499L4.19 19.4499L2.66 17.2699L0 17.3699L2.45 12.4199C2.6 12.4699 2.74 12.5299 2.82 12.6299C3.05 12.8999 2.95 13.4899 3.21 13.7199C3.47 13.9499 4.05 13.7699 4.35 13.9599C4.64 14.1499 4.71 14.7499 5.04 14.8999C5.36 15.0499 5.86 14.7099 6.2 14.8099C6.28 14.8299 6.35 14.8799 6.42 14.9399V14.9499Z" fill="#AA700C"/>
<path d="M17.0001 17.3899L14.3401 17.2799L12.8001 19.4499L10.5801 14.9399C10.6501 14.8799 10.7201 14.8399 10.8001 14.8099C11.1401 14.7099 11.6401 15.0499 11.9601 14.9099C12.2801 14.7599 12.3501 14.1599 12.6501 13.9699C12.9501 13.7799 13.5201 13.9699 13.7901 13.7299C14.0601 13.4999 13.9601 12.8999 14.1901 12.6399C14.2801 12.5399 14.4201 12.4799 14.5601 12.4299L17.0001 17.3899Z" fill="#AA700C"/>
<path d="M15.9 9.71995C15.8 10.0599 15.21 10.2199 15.07 10.5299C14.92 10.8499 15.19 11.3999 15 11.6899C14.88 11.8699 14.6 11.9399 14.35 12.0199C14.2 12.07 14.06 12.1299 13.98 12.2299C13.75 12.4999 13.85 13.0899 13.58 13.3199C13.32 13.5499 12.74 13.37 12.44 13.5599C12.15 13.7499 12.07 14.3499 11.75 14.4999C11.43 14.6399 10.93 14.2999 10.59 14.3999C10.51 14.4199 10.44 14.4699 10.37 14.5299C10.14 14.7299 9.92996 15.0699 9.65996 15.1099C9.31996 15.1599 8.92996 14.6899 8.57996 14.6899C8.21996 14.6899 7.83996 15.1599 7.48996 15.1099C7.21996 15.0699 7.00996 14.7299 6.77996 14.5299C6.70996 14.4699 6.63996 14.4299 6.55996 14.3999C6.21996 14.2999 5.71996 14.6399 5.39996 14.4899C5.07996 14.3399 5.00996 13.7399 4.70996 13.5499C4.40996 13.36 3.83996 13.5499 3.56996 13.3099C3.29996 13.08 3.39996 12.4799 3.17996 12.2199C3.08996 12.1199 2.94996 12.0599 2.80996 12.0099C2.55996 11.9199 2.27996 11.8599 2.15996 11.6699C1.96996 11.3799 2.22996 10.8299 2.08996 10.5099C1.93996 10.1899 1.35996 10.0299 1.25996 9.68995C1.15996 9.35995 1.56996 8.90995 1.51996 8.55995C1.46996 8.21995 0.959961 7.89995 0.959961 7.53995C0.959961 7.17995 1.47996 6.86995 1.52996 6.51995C1.57996 6.16995 1.16996 5.71995 1.26996 5.38995C1.36996 5.04995 1.95996 4.88995 2.09996 4.57995C2.24996 4.25995 1.97996 3.70995 2.16996 3.41995C2.35996 3.11995 2.96996 3.13995 3.19996 2.86995C3.42996 2.60995 3.32996 2.00995 3.59996 1.77995C3.86996 1.54995 4.43996 1.73995 4.73996 1.54995C5.02996 1.35995 5.10996 0.75995 5.42996 0.60995C5.74996 0.45995 6.24996 0.79995 6.58996 0.70995C6.91996 0.60995 7.16996 0.0599497 7.51996 0.0099497C7.85996 -0.0400503 8.24996 0.42995 8.59996 0.42995C8.95996 0.42995 9.33996 -0.0400503 9.68996 0.0099497C10.04 0.0599497 10.28 0.61995 10.61 0.71995C10.95 0.81995 11.45 0.47995 11.77 0.62995C12.09 0.77995 12.16 1.37995 12.46 1.56995C12.76 1.75995 13.33 1.56995 13.6 1.80995C13.87 2.03995 13.77 2.63995 13.99 2.90995C14.22 3.17995 14.83 3.15995 15.02 3.45995C15.21 3.74995 14.95 4.29995 15.09 4.61995C15.23 4.93995 15.82 5.09995 15.92 5.43995C16.02 5.76995 15.61 6.21995 15.66 6.56995C15.71 6.90995 16.22 7.22995 16.22 7.58995C16.22 7.94995 15.7 8.25995 15.65 8.60995C15.6 8.95995 16.01 9.40995 15.91 9.73995L15.9 9.71995Z" fill="#F8A81F"/>
<path d="M6 5.21988C6 4.55007 6.5502 3.99988 7.22 3.99988H9.05C10.7365 3.99988 12.1 5.36341 12.1 7.04988C12.1 8.73635 10.7365 10.0999 9.05 10.0999H7.22V11.9299C7.22 12.2648 6.9449 12.5399 6.61 12.5399C6.2751 12.5399 6 12.2648 6 11.9299V5.21988ZM7.22 8.87988H9.05C10.0547 8.87988 10.88 8.05458 10.88 7.04988C10.88 6.04517 10.0547 5.21988 9.05 5.21988H7.22V8.87988Z" fill="white"/>
<path d="M6.05329 1.56394L6.32327 2.37389L6.94139 2.58703C7.01954 2.61545 7.01954 2.65808 6.94139 2.6865L6.32327 2.89964L6.05329 3.70959C6.02487 3.79485 5.97513 3.79485 5.94671 3.70959L5.67673 2.89964L5.05861 2.6865C4.98046 2.65808 4.98046 2.61545 5.05861 2.58703L5.67673 2.37389L5.94671 1.56394C5.97513 1.47869 6.02487 1.47869 6.05329 1.56394Z" fill="white"/>
<path d="M3.4825 4.09L3.8625 5.23L4.7325 5.53C4.8425 5.57 4.8425 5.63 4.7325 5.67L3.8625 5.97L3.4825 7.11C3.4425 7.23 3.3725 7.23 3.3325 7.11L2.9525 5.97L2.0825 5.67C1.9725 5.63 1.9725 5.57 2.0825 5.53L2.9525 5.23L3.3325 4.09C3.3725 3.97 3.4425 3.97 3.4825 4.09Z" fill="white"/>
</g>
<defs>
<clipPath id="clip0_1_1590">
<rect width="17" height="19.45" fill="white"/>
</clipPath>
</defs>
</svg>
