<svg width="17" height="20" viewBox="0 0 17 20" fill="none" xmlns="http://www.w3.org/2000/svg">
<g clip-path="url(#clip0_1_1581)">
<path d="M2.79016 17.02L0.410156 17.11L2.57016 12.75C2.57016 12.75 2.62016 12.78 2.64016 12.8C2.70016 12.87 2.73016 13.05 2.76016 13.21C2.80016 13.46 2.85016 13.74 3.06016 13.92C3.27016 14.1 3.55016 14.11 3.81016 14.12C3.97016 14.12 4.15016 14.13 4.23016 14.18C4.31016 14.23 4.39016 14.39 4.46016 14.53C4.57016 14.76 4.70016 15.02 4.95016 15.13C5.04016 15.17 5.14016 15.19 5.24016 15.19C5.40016 15.19 5.56016 15.15 5.71016 15.11C5.84016 15.08 5.96016 15.04 6.06016 15.04C6.06016 15.04 6.08016 15.04 6.09016 15.04L4.15016 18.95L2.78016 17.01L2.79016 17.02Z" fill="#DD4769"/>
<path d="M2.54 13.3801C2.59 13.6301 2.67 13.9101 2.9 14.1101C3.17 14.3501 3.52 14.3601 3.8 14.3701C3.9 14.3701 4.05 14.3701 4.09 14.3901C4.13 14.4201 4.19 14.5601 4.24 14.6501C4.36 14.9001 4.52 15.2201 4.85 15.3701C4.97 15.4201 5.1 15.4501 5.25 15.4501C5.4 15.4501 5.53 15.4201 5.66 15.3901L4.13 18.4701L3.08 16.9801L2.92 16.7601H2.65L0.83 16.8401L2.54 13.3801ZM2.45 12.4301L0 17.3801L2.66 17.2801L4.19 19.4601L6.42 14.9601C6.35 14.9001 6.28 14.8601 6.2 14.8301C6.15 14.8201 6.11 14.8101 6.06 14.8101C5.8 14.8101 5.49 14.9601 5.23 14.9601C5.16 14.9601 5.1 14.9501 5.04 14.9201C4.72 14.7701 4.65 14.1701 4.35 13.9801C4.05 13.7901 3.48 13.9801 3.21 13.7401C2.94 13.5101 3.04 12.9101 2.82 12.6501C2.73 12.5501 2.59 12.4901 2.45 12.4401V12.4301Z" fill="#DD4769"/>
<path d="M10.9199 15.05C11.0599 15.05 11.1799 15.08 11.2999 15.11C11.4599 15.15 11.6199 15.19 11.7799 15.19C11.8899 15.19 11.9899 15.17 12.0699 15.13C12.3199 15.02 12.4499 14.76 12.5599 14.53C12.6299 14.39 12.7099 14.23 12.7899 14.18C12.8699 14.13 13.0499 14.12 13.2099 14.12C13.4599 14.12 13.7499 14.1 13.9599 13.93C14.1699 13.75 14.2199 13.47 14.2599 13.22C14.2899 13.06 14.3199 12.89 14.3799 12.81C14.3999 12.79 14.4199 12.77 14.4499 12.76L16.5999 17.13L14.2299 17.03L12.8599 18.97L10.9399 15.06L10.9199 15.05Z" fill="#DD4769"/>
<path d="M14.4801 13.3901L16.1801 16.8601L14.3601 16.7801H14.0901L13.9301 16.9901L12.8801 18.4801L11.3601 15.3901C11.4901 15.4201 11.6301 15.4501 11.7701 15.4501C11.9101 15.4501 12.0501 15.4201 12.1701 15.3701C12.5001 15.2201 12.6601 14.9101 12.7801 14.6501C12.8201 14.5601 12.8901 14.4201 12.9101 14.4001C12.9601 14.3801 13.1101 14.3801 13.2101 14.3701C13.4901 14.3701 13.8401 14.3501 14.1101 14.1201C14.3401 13.9201 14.4201 13.6401 14.4701 13.3901M14.5601 12.4301C14.4101 12.4801 14.2701 12.5401 14.1901 12.6401C13.9601 12.9101 14.0601 13.5001 13.7901 13.7301C13.5301 13.9601 12.9501 13.7801 12.6501 13.9701C12.3601 14.1601 12.2801 14.7601 11.9601 14.9101C11.9001 14.9401 11.8401 14.9501 11.7701 14.9501C11.5101 14.9501 11.2001 14.8001 10.9401 14.8001C10.8901 14.8001 10.8401 14.8001 10.8001 14.8201C10.7201 14.8401 10.6501 14.8901 10.5801 14.9501L12.8001 19.4601L14.3401 17.2901L17.0001 17.4001L14.5601 12.4401V12.4301Z" fill="#DD4769"/>
<path d="M15.8199 9.71995C15.7199 10.0599 15.1299 10.2199 14.9899 10.5299C14.8399 10.8499 15.1099 11.3999 14.9199 11.6899C14.7999 11.8699 14.5199 11.9399 14.2699 12.0199C14.1199 12.07 13.9799 12.1299 13.8999 12.2299C13.6699 12.4999 13.7699 13.0899 13.4999 13.3199C13.2399 13.5499 12.6599 13.37 12.3599 13.5599C12.0699 13.7499 11.9899 14.3499 11.6699 14.4999C11.3499 14.6399 10.8499 14.2999 10.5099 14.3999C10.4299 14.4199 10.3599 14.4699 10.2899 14.5299C10.0599 14.7299 9.84988 15.0699 9.57988 15.1099C9.23988 15.1599 8.84988 14.6899 8.49988 14.6899C8.13988 14.6899 7.75988 15.1599 7.40988 15.1099C7.13988 15.0699 6.92988 14.7299 6.69988 14.5299C6.62988 14.4699 6.55988 14.4299 6.47988 14.3999C6.13988 14.2999 5.63988 14.6399 5.31988 14.4899C4.99988 14.3399 4.92988 13.7399 4.62988 13.5499C4.32988 13.36 3.75988 13.5499 3.48988 13.3099C3.21988 13.08 3.31988 12.4799 3.09988 12.2199C3.00988 12.1199 2.86988 12.0599 2.72988 12.0099C2.47988 11.9199 2.19988 11.8599 2.07988 11.6699C1.88988 11.3799 2.14988 10.8299 2.00988 10.5099C1.85988 10.1899 1.27988 10.0299 1.17988 9.68995C1.07988 9.35995 1.48988 8.90995 1.43988 8.55995C1.38988 8.21995 0.879883 7.89995 0.879883 7.53995C0.879883 7.17995 1.39988 6.86995 1.44988 6.51995C1.49988 6.16995 1.08988 5.71995 1.18988 5.38995C1.28988 5.04995 1.87988 4.88995 2.01988 4.57995C2.16988 4.25995 1.89988 3.70995 2.08988 3.41995C2.27988 3.11995 2.88988 3.13995 3.11988 2.86995C3.34988 2.60995 3.24988 2.00995 3.51988 1.77995C3.78988 1.54995 4.35988 1.73995 4.65988 1.54995C4.94988 1.35995 5.02988 0.75995 5.34988 0.60995C5.66988 0.45995 6.16988 0.79995 6.50988 0.70995C6.83988 0.60995 7.08988 0.0599497 7.43988 0.0099497C7.77988 -0.0400503 8.16988 0.42995 8.51988 0.42995C8.87988 0.42995 9.25988 -0.0400503 9.60988 0.0099497C9.95988 0.0599497 10.1999 0.61995 10.5299 0.71995C10.8699 0.81995 11.3699 0.47995 11.6899 0.62995C12.0099 0.77995 12.0799 1.37995 12.3799 1.56995C12.6799 1.75995 13.2499 1.56995 13.5199 1.80995C13.7899 2.03995 13.6899 2.63995 13.9099 2.90995C14.1399 3.17995 14.7499 3.15995 14.9399 3.45995C15.1299 3.74995 14.8699 4.29995 15.0099 4.61995C15.1499 4.93995 15.7399 5.09995 15.8399 5.43995C15.9399 5.76995 15.5299 6.21995 15.5799 6.56995C15.6299 6.90995 16.1399 7.22995 16.1399 7.58995C16.1399 7.94995 15.6199 8.25995 15.5699 8.60995C15.5199 8.95995 15.9299 9.40995 15.8299 9.73995L15.8199 9.71995Z" fill="#FF587E"/>
<path d="M6 5.22C6 4.5502 6.5502 4 7.22 4H9.05C10.7365 4 12.1 5.36353 12.1 7.05C12.1 8.73647 10.7365 10.1 9.05 10.1H7.22V11.93C7.22 12.2649 6.9449 12.54 6.61 12.54C6.2751 12.54 6 12.2649 6 11.93V5.22ZM7.22 8.88H9.05C10.0547 8.88 10.88 8.05471 10.88 7.05C10.88 6.04529 10.0547 5.22 9.05 5.22H7.22V8.88Z" fill="white"/>
</g>
<defs>
<clipPath id="clip0_1_1581">
<rect width="17" height="19.45" fill="white"/>
</clipPath>
</defs>
</svg>
